<svg xmlns="http://www.w3.org/2000/svg" xmlns:xlink="http://www.w3.org/1999/xlink" viewBox="0 0 1100 1100"><defs><style>.cls-1{fill:url(#linear-gradient);}.cls-2{fill:url(#linear-gradient-2);}.cls-3{fill:url(#linear-gradient-3);}.cls-4{fill:url(#linear-gradient-4);}.cls-5{fill:url(#linear-gradient-5);}.cls-6{fill:url(#linear-gradient-6);}.cls-7{fill:#42c4e2;}.cls-8{fill:url(#linear-gradient-7);}.cls-9{fill:url(#linear-gradient-8);}.cls-10{fill:none;stroke:#fff;stroke-linecap:round;stroke-miterlimit:10;stroke-width:23px;opacity:0.84;}</style><linearGradient id="linear-gradient" x1="136.08" y1="-186.42" x2="677.26" y2="771.55" gradientUnits="userSpaceOnUse"><stop offset="0.3" stop-color="#bcbec0"/><stop offset="0.36" stop-color="#b5b7b9"/><stop offset="0.43" stop-color="#a7a9ac"/></linearGradient><linearGradient id="linear-gradient-2" x1="842.31" y1="997.74" x2="347.53" y2="233.58" gradientUnits="userSpaceOnUse"><stop offset="0.65" stop-color="#bababa"/><stop offset="0.72" stop-color="#b3bcbe"/><stop offset="0.84" stop-color="#9ec3ca"/><stop offset="0.98" stop-color="#7ecddd"/><stop offset="1" stop-color="#78cfe0"/></linearGradient><linearGradient id="linear-gradient-3" x1="519.24" y1="461.77" x2="422.39" y2="195.67" gradientUnits="userSpaceOnUse"><stop offset="0.15" stop-color="#bcbec0"/><stop offset="0.24" stop-color="#b5bec2"/><stop offset="0.37" stop-color="#a0bfc8"/><stop offset="0.54" stop-color="#7fc1d1"/><stop offset="0.72" stop-color="#52c3de"/><stop offset="0.77" stop-color="#42c4e2"/></linearGradient><linearGradient id="linear-gradient-4" x1="522.32" y1="843.69" x2="555.87" y2="483.2" gradientUnits="userSpaceOnUse"><stop offset="0" stop-color="#0f77bc"/><stop offset="0.15" stop-color="#0e7bb5"/><stop offset="0.38" stop-color="#0c85a0"/><stop offset="0.66" stop-color="#07967f"/><stop offset="0.97" stop-color="#02ad52"/><stop offset="1" stop-color="#01b04c"/></linearGradient><linearGradient id="linear-gradient-5" x1="728.96" y1="1214.17" x2="448.16" y2="166.21" gradientUnits="userSpaceOnUse"><stop offset="0.52" stop-color="#42c4e2"/><stop offset="0.67" stop-color="#74c2d4"/><stop offset="0.82" stop-color="#9bc0c9"/><stop offset="0.93" stop-color="#b3bec2"/><stop offset="1" stop-color="#bcbec0"/></linearGradient><linearGradient id="linear-gradient-6" x1="597.12" y1="1094.31" x2="547.45" y2="526.59" gradientUnits="userSpaceOnUse"><stop offset="0" stop-color="#78cfe0"/><stop offset="0.2" stop-color="#7cd0e0"/><stop offset="0.39" stop-color="#87d2e1"/><stop offset="0.57" stop-color="#9ad7e3"/><stop offset="0.76" stop-color="#b5dce4"/><stop offset="0.94" stop-color="#d8e4e7"/><stop offset="1" stop-color="#e6e7e8"/></linearGradient><linearGradient id="linear-gradient-7" x1="554.25" y1="1096.29" x2="554.25" y2="354.28" gradientUnits="userSpaceOnUse"><stop offset="0" stop-color="#42c4e2"/><stop offset="0.16" stop-color="#49c2de"/><stop offset="0.41" stop-color="#5ebdd3"/><stop offset="0.7" stop-color="#7fb4c2"/><stop offset="1" stop-color="#a7a9ac"/></linearGradient><linearGradient id="linear-gradient-8" x1="690.39" y1="1326.54" x2="690.39" y2="909.01" gradientUnits="userSpaceOnUse"><stop offset="0" stop-color="#606161"/><stop offset="0.14" stop-color="#5e6768"/><stop offset="0.35" stop-color="#5a767d"/><stop offset="0.6" stop-color="#52909e"/><stop offset="0.88" stop-color="#47b3cb"/><stop offset="1" stop-color="#42c4e2"/></linearGradient></defs><g id="Layer_3" data-name="Layer 3"><path class="cls-1" d="M938.91,157.38A548.23,548.23,0,0,0,624.29,1.24c-56.92,34.5-115.21,64.65-192.2,73.52C390.71,79.53,341.72,78.41,285,64.2a550.56,550.56,0,1,0,653.92,93.18Z"/><path class="cls-2" d="M550,1096.29A550.15,550.15,0,0,0,764.08,39.5q-22.17-9.37-44.91-16.73C554.16,70.38,475.05,187.92,309.41,207c-48.43,5.58-107.27,3.09-176.74-19A549.82,549.82,0,0,0,550,1096.29Z"/><path class="cls-3" d="M102.21,226.78a550.08,550.08,0,1,0,954.58,533.59A550.92,550.92,0,0,0,866.22,96.17c-45.41,3.28-91.12,12.72-136.06,30.31C600.67,177.15,565.28,261.08,445.71,293.3,369,314,258.42,313.18,102.21,226.78Z"/><path class="cls-4" d="M848.26,351.68C629,379.91,552.6,529.57,363.81,551.34,278.49,561.17,160.87,546,9.71,442.68A552.69,552.69,0,0,0,0,546.29,550.15,550.15,0,0,0,1056.79,760.36a552.41,552.41,0,0,0,13.82-392C1003,350.19,927.86,341.43,848.26,351.68Z"/><path class="cls-5" d="M964.54,184.8c-15.79.59-31.8,1.88-48,4C697.25,217,620.88,366.66,432.09,388.42c-86.56,10-206.39-5.83-360.77-113.26A550.37,550.37,0,1,0,964.54,184.8Z"/><path class="cls-6" d="M1100,544.63c-81.12-29.34-176-47.57-278.35-34.39C602.35,538.47,526,688.13,337.19,709.89c-81.29,9.37-191.92-4-332.93-94.63a549.55,549.55,0,0,0,545.74,481,549.53,549.53,0,0,0,550-550C1100,545.73,1100,545.18,1100,544.63Z"/><path class="cls-7" d="M432.09,74.76c43.58-5,81.16-16.86,115.9-32.45A306.9,306.9,0,0,0,453.2,29.38C396.05,30.62,347.74,47.69,309,69.52,355.63,78.6,396.65,78.85,432.09,74.76Z"/><path class="cls-8" d="M864.38,732.69C667.69,760.92,599.19,910.58,429.86,932.35,341.46,943.71,214.39,921.64,47,769a550.32,550.32,0,0,0,1009.83-8.64q2.45-5.79,4.75-11.62C1001.48,731,934.89,722.57,864.38,732.69Z"/><path class="cls-9" d="M775.63,904.85c-161.34,23.15-236.44,128-351.68,177a549.4,549.4,0,0,0,515-146.61q9.2-9.21,17.91-18.76C901,901.81,839.94,895.62,775.63,904.85Z"/><path class="cls-10" d="M305.61,144.68a468.6,468.6,0,0,1,163.9-61.57"/><path class="cls-10" d="M250.83,183.74q14.8-12.24,30.5-23.21"/><path class="cls-10" d="M80.37,527.41a465.93,465.93,0,0,1,36.52-164q1.68-4,3.42-7.9"/></g></svg>