<svg xmlns="http://www.w3.org/2000/svg" xmlns:xlink="http://www.w3.org/1999/xlink" viewBox="0 0 1100 1100"><defs><style>.cls-1{fill:url(#linear-gradient);}.cls-2{fill:url(#linear-gradient-2);}.cls-3{fill:url(#linear-gradient-3);}.cls-4{fill:url(#linear-gradient-4);}.cls-5{fill:url(#linear-gradient-5);}.cls-6{fill:url(#linear-gradient-6);}.cls-7{fill:#e05736;}.cls-8{fill:url(#linear-gradient-7);}.cls-9{fill:url(#linear-gradient-8);}.cls-10{fill:none;stroke:#fff;stroke-linecap:round;stroke-miterlimit:10;stroke-width:23px;opacity:0.84;}</style><linearGradient id="linear-gradient" x1="134.07" y1="-182.7" x2="675.25" y2="775.27" gradientUnits="userSpaceOnUse"><stop offset="0.3" stop-color="#e05736"/><stop offset="0.31" stop-color="#e15d3d"/><stop offset="0.32" stop-color="#e26e52"/><stop offset="0.34" stop-color="#e58973"/><stop offset="0.36" stop-color="#eaafa1"/><stop offset="0.38" stop-color="#efdfdb"/><stop offset="0.39" stop-color="#f1f2f2"/></linearGradient><linearGradient id="linear-gradient-2" x1="840.3" y1="1001.45" x2="345.52" y2="237.3" gradientUnits="userSpaceOnUse"><stop offset="0.79" stop-color="#fff"/><stop offset="0.81" stop-color="#fef9f8"/><stop offset="0.84" stop-color="#fbe8e3"/><stop offset="0.88" stop-color="#f6ccc2"/><stop offset="0.93" stop-color="#efa694"/><stop offset="0.97" stop-color="#e6755a"/><stop offset="1" stop-color="#e05736"/></linearGradient><linearGradient id="linear-gradient-3" x1="-2.01" y1="599.94" x2="1097.99" y2="599.94" gradientUnits="userSpaceOnUse"><stop offset="0" stop-color="#e05736"/><stop offset="0.32" stop-color="#e15f37"/><stop offset="0.83" stop-color="#e27638"/><stop offset="0.98" stop-color="#e37e39"/></linearGradient><linearGradient id="linear-gradient-4" x1="520.31" y1="847.4" x2="553.86" y2="486.91" gradientUnits="userSpaceOnUse"><stop offset="0" stop-color="#0f77bc"/><stop offset="0.15" stop-color="#0e7bb5"/><stop offset="0.38" stop-color="#0c85a0"/><stop offset="0.66" stop-color="#07967f"/><stop offset="0.97" stop-color="#02ad52"/><stop offset="1" stop-color="#01b04c"/></linearGradient><linearGradient id="linear-gradient-5" x1="744.83" y1="1284.63" x2="464.03" y2="236.67" gradientUnits="userSpaceOnUse"><stop offset="0.51" stop-color="#e05736"/><stop offset="0.62" stop-color="#e2816a"/><stop offset="0.75" stop-color="#e4ada0"/><stop offset="0.86" stop-color="#e5ccc7"/><stop offset="0.94" stop-color="#e6e0df"/><stop offset="1" stop-color="#e6e7e8"/></linearGradient><linearGradient id="linear-gradient-6" x1="43.76" y1="962.95" x2="1071.87" y2="583.95" xlink:href="#linear-gradient-3"/><linearGradient id="linear-gradient-7" x1="552.24" y1="1100" x2="552.24" y2="357.99" gradientUnits="userSpaceOnUse"><stop offset="0" stop-color="#fff"/><stop offset="0.06" stop-color="#fef9f8"/><stop offset="0.14" stop-color="#fbe8e3"/><stop offset="0.24" stop-color="#f6ccc2"/><stop offset="0.36" stop-color="#efa694"/><stop offset="0.48" stop-color="#e6755a"/><stop offset="0.55" stop-color="#e05736"/></linearGradient><linearGradient id="linear-gradient-8" x1="688.37" y1="1330.25" x2="688.37" y2="912.72" gradientUnits="userSpaceOnUse"><stop offset="0" stop-color="#fff"/><stop offset="0.1" stop-color="#fef9f8"/><stop offset="0.26" stop-color="#fbe8e3"/><stop offset="0.44" stop-color="#f6ccc2"/><stop offset="0.65" stop-color="#efa694"/><stop offset="0.87" stop-color="#e6755a"/><stop offset="1" stop-color="#e05736"/></linearGradient></defs><g id="Layer_3" data-name="Layer 3"><path class="cls-1" d="M936.9,161.09A548.3,548.3,0,0,0,622.28,5C565.36,39.46,507.07,69.6,430.08,78.48c-41.39,4.77-90.37,3.64-147.1-10.57A550.56,550.56,0,1,0,936.9,161.09Z"/><path class="cls-2" d="M548,1100A550.15,550.15,0,0,0,762.06,43.21q-22.15-9.37-44.9-16.73C552.15,74.09,473,191.63,307.39,210.72c-48.42,5.58-107.26,3.09-176.74-19A549.82,549.82,0,0,0,548,1100Z"/><path class="cls-3" d="M100.2,230.49a550.08,550.08,0,1,0,954.58,533.59A550.92,550.92,0,0,0,864.21,99.88c-45.41,3.28-91.12,12.72-136.06,30.31C598.66,180.86,563.27,264.79,443.7,297,367,317.67,256.41,316.89,100.2,230.49Z"/><path class="cls-4" d="M846.25,355.4C627,383.63,550.59,533.29,361.79,555.05c-85.31,9.83-202.93-5.38-354.09-108.66A552.77,552.77,0,0,0-2,550,550.15,550.15,0,0,0,1054.78,764.08a552.41,552.41,0,0,0,13.82-392C1001,353.91,925.85,345.15,846.25,355.4Z"/><path class="cls-5" d="M962.53,188.51c-15.8.6-31.8,1.89-48,4C695.24,220.71,618.87,370.37,430.08,392.14c-86.57,10-206.39-5.84-360.77-113.27a550.37,550.37,0,1,0,893.22-90.36Z"/><path class="cls-6" d="M1098,548.34C1016.86,519,922,500.78,819.63,514,600.34,542.18,524,691.84,335.17,713.6,253.89,723,143.26,709.6,2.24,619A549.56,549.56,0,0,0,548,1100a549.51,549.51,0,0,0,550-550C1098,549.45,1098,548.9,1098,548.34Z"/><path class="cls-7" d="M430.08,78.48c43.57-5,81.16-16.87,115.9-32.45a306.64,306.64,0,0,0-94.79-12.94C394,34.33,345.73,51.4,306.94,73.24,353.62,82.31,394.64,82.56,430.08,78.48Z"/><path class="cls-8" d="M862.37,736.41C665.68,764.64,597.18,914.3,427.84,936.06,339.45,947.42,212.38,925.36,45,772.71a550.33,550.33,0,0,0,1009.83-8.63q2.45-5.79,4.75-11.62C999.46,734.71,932.88,726.29,862.37,736.41Z"/><path class="cls-9" d="M773.61,908.56c-161.33,23.16-236.43,128-351.67,177a549.43,549.43,0,0,0,515-146.61q9.2-9.2,17.9-18.76C899,905.52,837.93,899.33,773.61,908.56Z"/><path class="cls-10" d="M303.6,148.39A468.64,468.64,0,0,1,467.49,86.82"/><path class="cls-10" d="M248.82,187.46q14.81-12.26,30.5-23.22"/><path class="cls-10" d="M78.36,531.12a465.54,465.54,0,0,1,36.52-164q1.68-4,3.42-7.9"/></g></svg>