<svg xmlns="http://www.w3.org/2000/svg" xmlns:xlink="http://www.w3.org/1999/xlink" viewBox="0 0 1100 1100"><defs><style>.cls-1{fill:url(#linear-gradient);}.cls-2{fill:url(#linear-gradient-2);}.cls-3{fill:url(#linear-gradient-3);}.cls-4{fill:url(#linear-gradient-4);}.cls-5{fill:url(#linear-gradient-5);}.cls-6{fill:url(#linear-gradient-6);}.cls-7{fill:url(#linear-gradient-7);}.cls-8{fill:url(#linear-gradient-8);}.cls-9{fill:url(#linear-gradient-9);}.cls-10{fill:none;stroke:#fff;stroke-linecap:round;stroke-miterlimit:10;stroke-width:23px;opacity:0.84;}</style><linearGradient id="linear-gradient" x1="136.08" y1="-182.7" x2="677.26" y2="775.27" gradientUnits="userSpaceOnUse"><stop offset="0.3" stop-color="#bcbec0"/><stop offset="0.34" stop-color="#b5b7b9"/><stop offset="0.39" stop-color="#a7a9ac"/></linearGradient><linearGradient id="linear-gradient-2" x1="842.31" y1="1001.45" x2="347.53" y2="237.3" gradientUnits="userSpaceOnUse"><stop offset="0.79" stop-color="#231f20"/><stop offset="0.84" stop-color="#2a2627"/><stop offset="0.91" stop-color="#3c3a3c"/><stop offset="1" stop-color="#58595b"/></linearGradient><linearGradient id="linear-gradient-3" x1="519.24" y1="465.48" x2="176" y2="-477.56" gradientUnits="userSpaceOnUse"><stop offset="0" stop-color="#231f20"/><stop offset="0.14" stop-color="#2a2625"/><stop offset="0.34" stop-color="#3f3834"/><stop offset="0.59" stop-color="#5f554b"/><stop offset="0.71" stop-color="#726658"/></linearGradient><linearGradient id="linear-gradient-4" x1="522.32" y1="847.4" x2="555.87" y2="486.91" gradientUnits="userSpaceOnUse"><stop offset="0" stop-color="#0f77bc"/><stop offset="0.15" stop-color="#0e7bb5"/><stop offset="0.38" stop-color="#0c85a0"/><stop offset="0.66" stop-color="#07967f"/><stop offset="0.97" stop-color="#02ad52"/><stop offset="1" stop-color="#01b04c"/></linearGradient><linearGradient id="linear-gradient-5" x1="746.84" y1="1284.63" x2="466.04" y2="236.67" gradientUnits="userSpaceOnUse"><stop offset="0.51" stop-color="#9b8579"/><stop offset="0.59" stop-color="#89776e"/><stop offset="0.77" stop-color="#625956"/><stop offset="0.91" stop-color="#4a4747"/><stop offset="1" stop-color="#414042"/></linearGradient><linearGradient id="linear-gradient-6" x1="597.12" y1="1098.03" x2="547.45" y2="530.3" gradientUnits="userSpaceOnUse"><stop offset="0" stop-color="#231f20"/><stop offset="0.39" stop-color="#252122"/><stop offset="0.6" stop-color="#2c292a"/><stop offset="0.77" stop-color="#393738"/><stop offset="0.91" stop-color="#4a4a4b"/><stop offset="1" stop-color="#58595b"/></linearGradient><linearGradient id="linear-gradient-7" x1="429.11" y1="69.98" x2="426.29" y2="24.2" gradientUnits="userSpaceOnUse"><stop offset="0" stop-color="#231f20"/><stop offset="0.27" stop-color="#252122"/><stop offset="0.42" stop-color="#2d292a"/><stop offset="0.53" stop-color="#3b3738"/><stop offset="0.64" stop-color="#4e4b4c"/><stop offset="0.73" stop-color="#666465"/><stop offset="0.81" stop-color="#858384"/><stop offset="0.89" stop-color="#a9a8a9"/><stop offset="0.97" stop-color="#d1d2d3"/><stop offset="1" stop-color="#e6e7e8"/></linearGradient><linearGradient id="linear-gradient-8" x1="554.25" y1="1100" x2="554.25" y2="732.05" gradientUnits="userSpaceOnUse"><stop offset="0" stop-color="#231f20"/><stop offset="0.24" stop-color="#2a2627"/><stop offset="0.59" stop-color="#3c3a3c"/><stop offset="1" stop-color="#58595b"/></linearGradient><linearGradient id="linear-gradient-9" x1="690.39" y1="1100" x2="690.39" y2="904.21" gradientUnits="userSpaceOnUse"><stop offset="0" stop-color="#231f20"/><stop offset="0.15" stop-color="#2a2627"/><stop offset="0.36" stop-color="#3d3a3c"/><stop offset="0.63" stop-color="#5c5b5d"/><stop offset="0.92" stop-color="#86888a"/><stop offset="1" stop-color="#939598"/></linearGradient></defs><g id="Layer_2" data-name="Layer 2"><path class="cls-1" d="M938.91,161.09A548.23,548.23,0,0,0,624.29,5C567.37,39.46,509.08,69.6,432.09,78.48c-41.38,4.77-90.37,3.64-147.1-10.57a550.56,550.56,0,1,0,653.92,93.18Z"/><path class="cls-2" d="M550,1100A550.15,550.15,0,0,0,764.08,43.21q-22.17-9.37-44.91-16.73c-165,47.61-244.12,165.15-409.76,184.24-48.43,5.58-107.27,3.09-176.74-19A549.82,549.82,0,0,0,550,1100Z"/><path class="cls-3" d="M102.21,230.49a550.08,550.08,0,1,0,954.58,533.59A550.92,550.92,0,0,0,866.22,99.88c-45.41,3.28-91.12,12.72-136.06,30.31C600.67,180.86,565.28,264.79,445.71,297,369,317.67,258.42,316.89,102.21,230.49Z"/><path class="cls-4" d="M848.26,355.4C629,383.63,552.6,533.29,363.81,555.05c-85.32,9.83-202.94-5.38-354.1-108.66A552.77,552.77,0,0,0,0,550,550.15,550.15,0,0,0,1056.79,764.08a552.41,552.41,0,0,0,13.82-392C1003,353.91,927.86,345.15,848.26,355.4Z"/><path class="cls-5" d="M964.54,188.51c-15.79.6-31.8,1.89-48,4C697.25,220.71,620.88,370.37,432.09,392.14c-86.56,10-206.39-5.84-360.77-113.27a550.37,550.37,0,1,0,893.22-90.36Z"/><path class="cls-6" d="M1100,548.34C1018.87,519,924,500.78,821.64,514,602.35,542.18,526,691.84,337.19,713.6,255.9,723,145.27,709.6,4.26,619A549.55,549.55,0,0,0,550,1100a549.51,549.51,0,0,0,550-550C1100,549.45,1100,548.9,1100,548.34Z"/><path class="cls-7" d="M432.09,78.48c43.58-5,81.16-16.87,115.9-32.45A306.59,306.59,0,0,0,453.2,33.09C396.05,34.33,347.74,51.4,309,73.24,355.63,82.31,396.65,82.56,432.09,78.48Z"/><path class="cls-8" d="M864.38,736.41C667.69,764.64,599.19,914.3,429.86,936.06c-88.4,11.36-215.47-10.7-382.9-163.35a550.33,550.33,0,0,0,1009.83-8.63q2.45-5.79,4.75-11.62C1001.48,734.71,934.89,726.29,864.38,736.41Z"/><path class="cls-9" d="M775.63,908.56c-161.34,23.16-236.44,128-351.68,177a549.4,549.4,0,0,0,515-146.61q9.2-9.2,17.91-18.76C901,905.52,839.94,899.33,775.63,908.56Z"/><path class="cls-10" d="M305.61,148.39a468.6,468.6,0,0,1,163.9-61.57"/><path class="cls-10" d="M250.83,187.46q14.8-12.26,30.5-23.22"/><path class="cls-10" d="M80.37,531.12a466,466,0,0,1,36.52-164q1.68-4,3.42-7.9"/></g></svg>