<svg id="Layer_1" data-name="Layer 1" xmlns="http://www.w3.org/2000/svg" xmlns:xlink="http://www.w3.org/1999/xlink" viewBox="0 0 1100 1100"><defs><style>.cls-1{fill:url(#linear-gradient);}.cls-2{fill:url(#linear-gradient-2);}.cls-3{fill:url(#linear-gradient-3);}.cls-4{fill:url(#linear-gradient-4);}.cls-5{fill:url(#linear-gradient-5);}.cls-6{fill:url(#linear-gradient-6);}.cls-7{fill:url(#linear-gradient-7);}.cls-8{fill:url(#linear-gradient-8);}.cls-9{fill:url(#linear-gradient-9);}.cls-10{fill:none;stroke:#fff;stroke-linecap:round;stroke-miterlimit:10;stroke-width:23px;opacity:0.84;}</style><linearGradient id="linear-gradient" x1="136.08" y1="-181.11" x2="677.26" y2="776.86" gradientUnits="userSpaceOnUse"><stop offset="0.3" stop-color="#231f20"/><stop offset="0.31" stop-color="#292127"/><stop offset="0.33" stop-color="#38273c"/><stop offset="0.35" stop-color="#52305d"/><stop offset="0.38" stop-color="#753c8a"/><stop offset="0.39" stop-color="#7f4098"/></linearGradient><linearGradient id="linear-gradient-2" x1="820.84" y1="1015.58" x2="361.91" y2="229.37" gradientUnits="userSpaceOnUse"><stop offset="0.58" stop-color="#231f20"/><stop offset="0.76" stop-color="#242022"/><stop offset="0.83" stop-color="#2a2129"/><stop offset="0.87" stop-color="#332534"/><stop offset="0.91" stop-color="#402945"/><stop offset="0.94" stop-color="#512f5b"/><stop offset="0.97" stop-color="#653776"/><stop offset="1" stop-color="#7d3f95"/><stop offset="1" stop-color="#7f4098"/></linearGradient><linearGradient id="linear-gradient-3" x1="519.24" y1="467.07" x2="176" y2="-475.96" gradientUnits="userSpaceOnUse"><stop offset="0" stop-color="#231f20"/><stop offset="0.15" stop-color="#292127"/><stop offset="0.36" stop-color="#38273c"/><stop offset="0.63" stop-color="#52305d"/><stop offset="0.92" stop-color="#753c8a"/><stop offset="1" stop-color="#7f4098"/></linearGradient><linearGradient id="linear-gradient-4" x1="522.32" y1="849" x2="555.87" y2="488.51" gradientUnits="userSpaceOnUse"><stop offset="0" stop-color="#0f77bc"/><stop offset="0.15" stop-color="#0e7bb5"/><stop offset="0.38" stop-color="#0c85a0"/><stop offset="0.66" stop-color="#07967f"/><stop offset="0.97" stop-color="#02ad52"/><stop offset="1" stop-color="#01b04c"/></linearGradient><linearGradient id="linear-gradient-5" x1="692.4" y1="1083.02" x2="450.15" y2="178.96" gradientUnits="userSpaceOnUse"><stop offset="0.19" stop-color="#060035"/><stop offset="0.31" stop-color="#0d043b"/><stop offset="0.48" stop-color="#220f4c"/><stop offset="0.7" stop-color="#432067"/><stop offset="0.93" stop-color="#70388c"/><stop offset="1" stop-color="#7f4098"/></linearGradient><linearGradient id="linear-gradient-6" x1="597.12" y1="1099.62" x2="544.47" y2="497.73" gradientUnits="userSpaceOnUse"><stop offset="0" stop-color="#7f4098"/><stop offset="0.14" stop-color="#763b90"/><stop offset="0.38" stop-color="#5d2f7a"/><stop offset="0.67" stop-color="#351b57"/><stop offset="1" stop-color="#000028"/></linearGradient><linearGradient id="linear-gradient-7" x1="429.11" y1="71.58" x2="426.29" y2="25.79" gradientUnits="userSpaceOnUse"><stop offset="0" stop-color="#7f4098"/><stop offset="0.39" stop-color="#7d4198"/><stop offset="0.6" stop-color="#754299"/><stop offset="0.77" stop-color="#67459b"/><stop offset="0.92" stop-color="#544a9d"/><stop offset="1" stop-color="#454d9f"/></linearGradient><linearGradient id="linear-gradient-8" x1="554.25" y1="1101.59" x2="554.25" y2="733.65" gradientUnits="userSpaceOnUse"><stop offset="0" stop-color="#231f20"/><stop offset="0.43" stop-color="#242022"/><stop offset="0.59" stop-color="#2a2129"/><stop offset="0.7" stop-color="#332534"/><stop offset="0.79" stop-color="#402945"/><stop offset="0.87" stop-color="#512f5b"/><stop offset="0.94" stop-color="#653776"/><stop offset="1" stop-color="#7d3f95"/><stop offset="1" stop-color="#7f4098"/></linearGradient><linearGradient id="linear-gradient-9" x1="690.39" y1="1101.59" x2="690.39" y2="905.8" xlink:href="#linear-gradient-3"/></defs><path class="cls-1" d="M938.91,162.69A548.06,548.06,0,0,0,624.29,6.55c-56.92,34.5-115.21,64.65-192.2,73.52C390.71,84.84,341.72,83.71,285,69.5a550.57,550.57,0,1,0,653.92,93.19Z"/><path class="cls-2" d="M550,1101.59A550.16,550.16,0,0,0,764.08,44.8q-22.17-9.36-44.91-16.72c-165,47.61-244.12,165.14-409.76,184.24-48.43,5.58-107.27,3.09-176.74-19A549.8,549.8,0,0,0,550,1101.59Z"/><path class="cls-3" d="M102.21,232.08a550.08,550.08,0,1,0,954.58,533.59,550.92,550.92,0,0,0-190.57-664.2c-45.41,3.28-91.12,12.72-136.06,30.31C600.67,182.45,565.28,266.38,445.71,298.6,369,319.26,258.42,318.48,102.21,232.08Z"/><path class="cls-4" d="M848.26,357C629,385.22,552.6,534.88,363.81,556.64,278.49,566.48,160.87,551.27,9.71,448A552.85,552.85,0,0,0,0,551.59,550.15,550.15,0,0,0,1056.79,765.67a552.41,552.41,0,0,0,13.82-392C1003,355.5,927.86,346.74,848.26,357Z"/><path class="cls-5" d="M964.54,190.11c-15.79.59-31.8,1.88-48,4C697.25,222.31,620.88,372,432.09,393.73c-86.56,10-206.39-5.83-360.77-113.26a550.37,550.37,0,1,0,893.22-90.36Z"/><path class="cls-6" d="M1100,549.94c-81.12-29.34-176-47.57-278.35-34.4C602.35,543.77,526,693.44,337.19,715.2c-81.29,9.37-191.92-4-332.93-94.63a549.52,549.52,0,0,0,545.74,481,549.51,549.51,0,0,0,550-550C1100,551,1100,550.49,1100,549.94Z"/><path class="cls-7" d="M432.09,80.07c43.58-5,81.16-16.86,115.9-32.45A306.9,306.9,0,0,0,453.2,34.69C396.05,35.92,347.74,53,309,74.83,355.63,83.91,396.65,84.16,432.09,80.07Z"/><path class="cls-8" d="M864.38,738C667.69,766.23,599.19,915.89,429.86,937.65,341.46,949,214.39,927,47,774.31a550.33,550.33,0,0,0,1009.83-8.64q2.45-5.79,4.75-11.62C1001.48,736.3,934.89,727.88,864.38,738Z"/><path class="cls-9" d="M775.63,910.16c-161.34,23.15-236.44,128-351.68,176.95a549.33,549.33,0,0,0,515-146.61q9.2-9.19,17.91-18.76C901,907.12,839.94,900.92,775.63,910.16Z"/><path class="cls-10" d="M305.61,150a470.19,470.19,0,0,1,61.48-31.5A465,465,0,0,1,469.51,88.42"/><path class="cls-10" d="M250.83,189.05q14.8-12.26,30.5-23.21"/><path class="cls-10" d="M80.37,532.72a466,466,0,0,1,36.52-164q1.68-4,3.42-7.89"/></svg>