<svg xmlns="http://www.w3.org/2000/svg" xmlns:xlink="http://www.w3.org/1999/xlink" viewBox="0 0 1100 1100"><defs><style>.cls-1{fill:url(#linear-gradient);}.cls-2{fill:url(#linear-gradient-2);}.cls-3{fill:#83c449;}.cls-4{fill:url(#linear-gradient-3);}.cls-5{fill:url(#linear-gradient-4);}.cls-6{fill:url(#linear-gradient-5);}.cls-7{fill:#f491a7;}.cls-8{fill:url(#linear-gradient-6);}.cls-9{fill:url(#linear-gradient-7);}.cls-10{fill:none;stroke:#fff;stroke-linecap:round;stroke-miterlimit:10;stroke-width:23px;opacity:0.84;}</style><linearGradient id="linear-gradient" x1="136.08" y1="-180.23" x2="677.26" y2="777.74" gradientUnits="userSpaceOnUse"><stop offset="0.3" stop-color="#dfa8a3"/><stop offset="0.33" stop-color="#d8ab9d"/><stop offset="0.38" stop-color="#c4b58c"/><stop offset="0.39" stop-color="#c1b68a"/></linearGradient><linearGradient id="linear-gradient-2" x1="842.31" y1="1003.93" x2="347.53" y2="239.77" gradientUnits="userSpaceOnUse"><stop offset="0.79" stop-color="#6bbe4d"/><stop offset="0.82" stop-color="#72bc52"/><stop offset="0.86" stop-color="#87b55f"/><stop offset="0.91" stop-color="#a8aa75"/><stop offset="0.97" stop-color="#d59b94"/><stop offset="1" stop-color="#f491a8"/></linearGradient><linearGradient id="linear-gradient-3" x1="522.32" y1="849.88" x2="555.87" y2="489.39" gradientUnits="userSpaceOnUse"><stop offset="0" stop-color="#0f77bc"/><stop offset="0.15" stop-color="#0e7bb5"/><stop offset="0.38" stop-color="#0c85a0"/><stop offset="0.66" stop-color="#07967f"/><stop offset="0.97" stop-color="#02ad52"/><stop offset="1" stop-color="#01b04c"/></linearGradient><linearGradient id="linear-gradient-4" x1="746.84" y1="1287.1" x2="466.04" y2="239.14" gradientUnits="userSpaceOnUse"><stop offset="0.19" stop-color="#ee9fa9"/><stop offset="0.26" stop-color="#e5a4a2"/><stop offset="0.58" stop-color="#bebb88"/><stop offset="0.84" stop-color="#a6c977"/><stop offset="1" stop-color="#9dce71"/></linearGradient><linearGradient id="linear-gradient-5" x1="596.97" y1="970.21" x2="551.36" y2="579.58" gradientUnits="userSpaceOnUse"><stop offset="0" stop-color="#58b647"/><stop offset="0.11" stop-color="#60b44c"/><stop offset="0.27" stop-color="#77af5a"/><stop offset="0.48" stop-color="#9ca671"/><stop offset="0.72" stop-color="#cf9a90"/><stop offset="0.87" stop-color="#f491a6"/></linearGradient><linearGradient id="linear-gradient-6" x1="554.25" y1="1102.48" x2="554.25" y2="360.47" gradientUnits="userSpaceOnUse"><stop offset="0" stop-color="#85c54b"/><stop offset="0.07" stop-color="#8cc251"/><stop offset="0.17" stop-color="#a1bb63"/><stop offset="0.29" stop-color="#c2ae81"/><stop offset="0.43" stop-color="#ef9da9"/><stop offset="0.45" stop-color="#f59bae"/></linearGradient><linearGradient id="linear-gradient-7" x1="690.39" y1="1332.73" x2="690.39" y2="915.2" gradientUnits="userSpaceOnUse"><stop offset="0" stop-color="#f19da3"/><stop offset="0.2" stop-color="#eaa19e"/><stop offset="0.5" stop-color="#d5ab90"/><stop offset="0.85" stop-color="#b5bb79"/><stop offset="1" stop-color="#a5c36e"/></linearGradient></defs><g id="Layer_3" data-name="Layer 3"><path class="cls-1" d="M938.91,163.57A548.23,548.23,0,0,0,624.29,7.43C567.37,41.93,509.08,72.08,432.09,81,390.71,85.72,341.72,84.6,285,70.39a550.56,550.56,0,1,0,653.92,93.18Z"/><path class="cls-2" d="M550,1102.48A550.15,550.15,0,0,0,764.08,45.69Q741.91,36.32,719.17,29c-165,47.61-244.12,165.15-409.76,184.24-48.43,5.58-107.27,3.09-176.74-19A549.82,549.82,0,0,0,550,1102.48Z"/><path class="cls-3" d="M102.21,233a550.08,550.08,0,1,0,954.58,533.59,550.92,550.92,0,0,0-190.57-664.2c-45.41,3.28-91.12,12.72-136.06,30.31-129.49,50.67-164.88,134.6-284.45,166.82C369,320.15,258.42,319.37,102.21,233Z"/><path class="cls-4" d="M848.26,357.87C629,386.1,552.6,535.76,363.81,557.52c-85.32,9.84-202.94-5.37-354.1-108.66A552.88,552.88,0,0,0,0,552.48,550.15,550.15,0,0,0,1056.79,766.55a552.41,552.41,0,0,0,13.82-392C1003,356.38,927.86,347.62,848.26,357.87Z"/><path class="cls-5" d="M964.54,191c-15.79.59-31.8,1.88-48,4C697.25,223.19,620.88,372.85,432.09,394.61c-86.56,10-206.39-5.83-360.77-113.26A550.37,550.37,0,1,0,964.54,191Z"/><path class="cls-6" d="M1100,550.82c-81.12-29.34-176-47.57-278.35-34.4C602.35,544.66,526,694.32,337.19,716.08c-81.29,9.37-191.92-4-332.93-94.63a549.55,549.55,0,0,0,545.74,481,549.53,549.53,0,0,0,550-550C1100,551.92,1100,551.37,1100,550.82Z"/><path class="cls-7" d="M432.09,81c43.58-5,81.16-16.86,115.9-32.45A306.9,306.9,0,0,0,453.2,35.57C396.05,36.81,347.74,53.88,309,75.71,355.63,84.79,396.65,85,432.09,81Z"/><path class="cls-8" d="M864.38,738.88C667.69,767.11,599.19,916.77,429.86,938.53c-88.4,11.36-215.47-10.7-382.9-163.34a550.33,550.33,0,0,0,1009.83-8.64q2.45-5.79,4.75-11.62C1001.48,737.18,934.89,728.76,864.38,738.88Z"/><path class="cls-9" d="M775.63,911C614.29,934.19,539.19,1039,424,1088a549.33,549.33,0,0,0,515-146.61q9.2-9.2,17.91-18.75C901,908,839.94,901.8,775.63,911Z"/><path class="cls-10" d="M305.61,150.87A468.6,468.6,0,0,1,469.51,89.3"/><path class="cls-10" d="M250.83,189.93q14.8-12.24,30.5-23.21"/><path class="cls-10" d="M80.37,533.6a466,466,0,0,1,36.52-164q1.68-4,3.42-7.89"/></g></svg>